<svg height="462pt" viewBox="0 -98 462 462" width="462pt" xmlns="http://www.w3.org/2000/svg"><path d="m452 34.71875v211.421875l-110.558594-85.832031v-60.308594zm0 0" fill="#00acea"/><path d="m296.148438 50v165.941406c.007812 22.09375-17.90625 40.003906-40 40h-206.148438c-22.089844 0-40-17.910156-40-40v-165.941406c0-22.089844 17.910156-40 40-40h206.148438c22.09375-.007812 40.007812 17.90625 40 40zm0 0" fill="#00efd1"/><g fill="#083863"><path d="m256.148438 0h-206.148438c-27.601562.03125-49.96875 22.398438-50 50v165.941406c.03125 27.601563 22.398438 49.96875 50 50h206.148438c27.601562-.03125 49.96875-22.398437 50-50v-165.941406c-.03125-27.601562-22.398438-49.96875-50-50zm30 215.941406c-.015626 16.558594-13.4375 29.980469-30 30h-206.148438c-16.5625-.019531-29.980469-13.441406-30-30v-165.941406c.019531-16.5625 13.4375-29.980469 30-30h206.148438c16.5625.019531 29.984374 13.4375 30 30zm0 0"/><path d="m456.957031 26.035156c-3.117187-1.78125-6.949219-1.75-10.042969.074219l-110.558593 65.28125c-3.046875 1.796875-4.914063 5.070313-4.914063 8.609375v60.308594c0 3.089844 1.425782 6.007812 3.867188 7.902344l110.558594 85.828124c3.015624 2.34375 7.101562 2.761719 10.53125 1.082032 3.429687-1.679688 5.601562-5.164063 5.601562-8.980469v-211.421875c0-3.589844-1.925781-6.902344-5.042969-8.683594zm-14.957031 199.683594-90.558594-70.300781v-49.699219l90.558594-53.480469zm0 0"/></g></svg>